<svg xmlns="http://www.w3.org/2000/svg" viewBox="0 0 800 300">
  <path fill="#a4a4a4" d="M111.99,150.68l-13.68-38.21h-8.72l19.51,51.39h5.33l19.49-51.39h-8.62L111.99,150.68z"/>
  <path fill="#a4a4a4" d="M166.24,136.44c-2.9-2.66-7.03-4-12.41-4c-3.64,0-6.9,0.74-9.79,2.22c-2.88,1.48-5.14,3.69-6.77,6.64
    c-1.63,2.95-2.45,6.45-2.45,10.51c0,4.05,0.83,7.56,2.5,10.51c1.67,2.95,3.99,5.16,6.97,6.64c2.98,1.48,6.4,2.22,10.27,2.22
    c5.29,0,9.53-1.42,12.71-4.27c3.18-2.85,5.09-6.89,5.72-12.13h-8.15c-0.52,2.85-1.63,4.98-3.32,6.4c-1.7,1.42-3.97,2.13-6.82,2.13
    c-3.78,0-6.66-1.24-8.62-3.71c-1.96-2.47-2.95-5.98-2.95-10.51c0-4.45,0.97-7.91,2.9-10.38c1.93-2.47,4.75-3.7,8.47-3.7
    c2.85,0,5.18,0.69,6.99,2.07c1.81,1.38,2.99,3.4,3.54,6.05h8.15C172.44,143.77,169.14,139.1,166.24,136.44z"/>
  <path fill="#a4a4a4" d="M198.88,136.44c-2.9-2.66-7.03-4-12.41-4c-3.64,0-6.9,0.74-9.79,2.22c-2.88,1.48-5.14,3.69-6.77,6.64
    c-1.63,2.95-2.45,6.45-2.45,10.51c0,4.05,0.83,7.56,2.5,10.51c1.67,2.95,3.99,5.16,6.97,6.64c2.98,1.48,6.4,2.22,10.27,2.22
    c5.29,0,9.53-1.42,12.71-4.27c3.18-2.85,5.09-6.89,5.72-12.13h-8.15c-0.52,2.85-1.63,4.98-3.32,6.4c-1.7,1.42-3.97,2.13-6.82,2.13
    c-3.78,0-6.66-1.24-8.62-3.71c-1.96-2.47-2.95-5.98-2.95-10.51c0-4.45,0.97-7.91,2.9-10.38c1.93-2.47,4.75-3.7,8.47-3.7
    c2.85,0,5.18,0.69,6.99,2.07c1.81,1.38,2.99,3.4,3.54,6.05h8.15C205.09,143.77,201.78,139.1,198.88,136.44z"/>
  <path fill="#a4a4a4" d="M231.76,155.49h-15.78l-3.59,8.37h-8.2l17.14-51.39h5.33l17.09,51.39h-8.34L231.76,155.49z M229.14,149.04
    l-5.27-15.06l-5.27,15.06H229.14z"/>
  <path fill="#a4a4a4" d="M260.23,112.47h-8.13v51.39h8.13V112.47z"/>
  <path fill="#a4a4a4" d="M287.87,112.47h-9.32l-16.49,51.39h8.37l3.55-11.58h18.18l3.57,11.58h8.59L287.87,112.47z M287.51,145.33
    h-13.78l6.89-22.4L287.51,145.33z"/>
  <path fill="#a4a4a4" d="M344.22,120.41v43.45h-8.13v-43.45h-13.29v-7.94h34.72v7.94H344.22z"/>
  <path fill="#a4a4a4" d="M385.26,133.2v7.84h-18.23v14.88h21v7.94h-29.13v-51.39h29.13v7.94h-21v12.78H385.26z"/>
  <path fill="#a4a4a4" d="M342.26,162.46l-1.74,11.65h-1.33l0.98-6.42l-2.37,6.42h-1.29l-0.71-6.42l-2.07,6.42h-1.3l2.61-11.65h1.51
    l0.84,6.52l2.34-6.52H342.26z"/>
  <polygon fill="#a4a4a4" points="342.26,162.46 345.22,174.11 343.92,174.11 340.95,162.46 "/>
</svg>