<svg xmlns="http://www.w3.org/2000/svg" viewBox="0 0 800 800">
  <path fill="#ffffff" d="M399.49,171.67c-78.77,1.41-142.43,40.05-169.5,101.57c-24.64,55.83-15.35,122.76,23.71,170.6c31.88,39.06,78.81,63.66,128.32,68.23c36.59,3.38,74.57-4.44,104.95-25.68c31.9-22.27,52.66-58.36,55.11-96.73c3.08-49.3-23.32-97.41-67.03-121.41c-33.27-18.67-74.78-19.96-108.94-3.26c-40.48,19.77-66.91,66.21-60.08,111.4c5.88,39.2,35.3,73.61,73.55,83.8c32.62,8.72,69.64,0.47,95.51-21.4c33.72-28.58,43.56-80.88,20.83-119.33c-14.79-25.27-42.78-41.49-72.52-42.8c-30.15-1.33-60.59,13.24-76.3,39.09c-17.5,28.81-13.62,68.61,11.21,92.4c19.25,18.51,50.13,25.72,76.04,16.71c30.42-10.61,51.05-44.42,44.18-76.15c-5.26-24.48-26.87-44.25-51.95-46.8c-21.57-2.21-43.97,7.61-55.33,25.75c-12.54,20.03-11.35,47.82,5.11,65.61c14.23,15.37,39.07,20.29,58.25,11.38c18.3-8.54,30.4-30.42,25.9-50.36c-3.5-15.55-16.75-28.55-32.42-31.29c-13.82-2.41-28.88,3.27-37.08,14.75c-9.26,12.99-9.31,32.19,0.61,44.8c8.6,10.97,24.35,15.91,37.86,11.23"/>
</svg>