<svg xmlns="http://www.w3.org/2000/svg" viewBox="0 0 800 300">
  <path fill="#a4a4a4" d="M430.62,195.33c-42.15,31.07-103.25,47.62-155.95,47.62c-73.75,0-140.11-27.26-190.28-72.62
    c-3.93-3.57-0.42-8.45,4.31-5.67c54.07,31.44,120.88,50.36,189.98,50.36c46.59,0,97.75-9.65,144.92-29.65
    C431.14,182.05,438.32,189.72,430.62,195.33z"/>
  <path fill="#a4a4a4" d="M447.67,175.83c-5.37-6.87-35.56-3.27-49.15-1.64c-4.13,0.49-4.75-3.11-1.04-5.73
    c24.08-16.92,63.6-12.04,68.2-6.37c4.6,5.73-1.22,45.42-23.83,64.38c-3.48,2.9-6.77,1.35-5.23-2.48
    C442.26,209.3,453.05,182.76,447.67,175.83z"/>
  <path fill="#a4a4a4" d="M408.91,86.98c0,7.04,0.26,12.98-3.39,19.25c-2.88,5.19-7.46,8.39-12.54,8.39
    c-6.97,0-11.04-5.31-11.04-13.16c0-15.47,13.86-18.27,26.97-18.27V86.98z M426.24,124.5c-1.11,0.99-2.7,1.06-3.94,0.4
    c-5.54-4.6-6.54-6.74-9.58-11.13c-9.14,9.33-15.62,12.14-27.5,12.14c-14.04,0-24.95-8.66-24.95-26c0-13.53,7.33-22.75,17.76-27.27
    c9.05-3.99,21.69-4.7,31.37-5.8v-2.16c0-3.97,0.31-8.66-2.02-12.08c-2.03-3.08-5.9-4.35-9.31-4.35c-6.32,0-11.97,3.25-13.35,9.98
    c-0.28,1.5-1.38,2.98-2.88,3.05l-16.14-1.73c-1.36-0.31-2.86-1.42-2.48-3.53c3.71-19.52,21.32-25.42,37.09-25.42
    c8.07,0,18.62,2.15,24.98,8.27c8.07,7.56,7.29,17.64,7.29,28.62v25.92c0,7.8,3.23,11.23,6.27,15.44
    c1.07,1.5,1.31,3.29-0.05,4.41C435.15,117.07,429.54,122.17,426.24,124.5L426.24,124.5z"/>
  <path fill="#a4a4a4" d="M264.54,124.44c-1.31,1.17-2.86,1.18-4.17,0.44c-5.87-4.89-6.93-7.17-10.16-11.85
    c-9.7,9.89-16.57,12.85-29.18,12.85c-14.9,0-26.48-9.19-26.48-27.6c0-14.36,7.79-24.14,18.85-28.95
    c9.61-4.23,23.02-4.99,33.29-6.15v-2.29c0-4.21,0.33-9.19-2.14-12.82c-2.15-3.27-6.26-4.62-9.88-4.62
    c-6.71,0-12.7,3.44-14.17,10.59c-0.3,1.59-1.46,3.16-3.05,3.24l-17.13-1.84c-1.44-0.33-3.04-1.5-2.63-3.75
    c3.94-20.73,22.62-26.99,39.36-26.99c8.56,0,19.77,2.28,26.52,8.78c8.57,8.03,7.74,18.71,7.74,30.38v27.51
    c0,8.27,3.43,11.9,6.65,16.38c1.13,1.59,1.38,3.5-0.06,4.68C273.44,116.59,267.47,121.94,264.54,124.44L264.54,124.44z
     M246.5,84.64c0,7.47,0.17,13.68-3.6,20.3c-3.06,5.45-7.93,8.84-13.32,8.84c-7.39,0-11.73-5.62-11.73-13.96
    c0-16.41,14.71-19.39,28.64-19.39V84.64z"/>
  <path fill="#a4a4a4" d="M484.29,124.44c-1.31,1.17-2.86,1.18-4.17,0.44c-5.87-4.89-6.93-7.17-10.16-11.85
    c-9.7,9.89-16.57,12.85-29.18,12.85c-14.9,0-26.48-9.19-26.48-27.6c0-14.36,7.79-24.14,18.85-28.95
    c9.61-4.23,23.02-4.99,33.29-6.15v-2.29c0-4.21,0.33-9.19-2.14-12.82c-2.15-3.27-6.26-4.62-9.88-4.62
    c-6.71,0-12.7,3.44-14.17,10.59c-0.3,1.59-1.46,3.16-3.05,3.24l-17.13-1.84c-1.44-0.33-3.04-1.5-2.63-3.75
    c3.94-20.73,22.62-26.99,39.36-26.99c8.56,0,19.77,2.28,26.52,8.78c8.57,8.03,7.74,18.71,7.74,30.38v27.51
    c0,8.27,3.43,11.9,6.65,16.38c1.13,1.59,1.38,3.5-0.06,4.68C493.19,116.59,487.22,121.94,484.29,124.44L484.29,124.44z
     M466.25,84.64c0,7.47,0.17,13.68-3.6,20.3c-3.06,5.45-7.93,8.84-13.32,8.84c-7.39,0-11.73-5.62-11.73-13.96
    c0-16.41,14.71-19.39,28.64-19.39V84.64z"/>
  <path fill="#a4a4a4" d="M509.11,33.51h-16.8c-1.6-0.1-2.88,1.21-3.07,2.63v80.88c0,1.59,1.29,2.88,2.88,2.88h15.66
    c1.47-0.08,2.64-1.19,2.88-2.6V36.38C510.66,34.85,510.02,33.59,509.11,33.51z"/>
  <path fill="#a4a4a4" d="M570.22,84.13c0,10.4,0.27,19.09-5,26.88c-4.29,6.36-11.1,10.28-18.69,10.28
    c-10.34,0-16.4-7.89-16.4-19.54c0-23,20.61-27.21,40.09-27.21V84.13z M587.35,124.48c-1.14,1.03-2.77,1.1-4.05,0.41
    c-5.69-4.73-6.73-6.92-9.85-11.43c-9.39,9.58-16.06,12.46-28.25,12.46c-14.43,0-25.64-8.9-25.64-26.7
    c0-13.9,7.53-23.38,18.25-28.02c9.31-4.1,22.29-4.83,32.25-5.97v-2.22c0-4.08,0.32-8.9-2.08-12.41
    c-2.09-3.16-6.08-4.46-9.58-4.46c-6.5,0-12.31,3.33-13.73,10.25c-0.29,1.54-1.41,3.06-2.96,3.13l-16.6-1.77
    c-1.39-0.32-2.94-1.46-2.55-3.62c3.81-20.06,21.92-26.11,38.12-26.11c8.29,0,19.14,2.21,25.69,8.49
    c8.3,7.76,7.5,18.12,7.5,29.4v26.63c0,8.01,3.32,11.54,6.45,15.87c1.09,1.54,1.34,3.38-0.06,4.53
    C596.51,116.82,590.76,122.08,587.35,124.48L587.35,124.48z"/>
  <path fill="#a4a4a4" d="M631.96,88.94c0,7.74-0.18,14.22,3.71,21.08c3.15,5.63,8.18,9.12,13.73,9.12c9.59,0,15.25-7.3,15.25-18.07
    c0-21.28-15.14-25.1-32.69-25.1V88.94z M611.16,124.29c-1.69,0.15-3.11-1.21-3.11-2.92V35.99c0-1.56,1.32-2.8,2.93-2.8h16.05
    c1.48,0.08,2.66,1.15,2.93,2.53v27.45c6.69-8.32,16.09-12.25,28.07-12.25c11.44,0,21.39,4.13,28.25,12.25
    c6.68,7.65,6.13,18.24,6.13,29.33v30.83c-0.12,1.64-1.5,2.92-3.15,2.92h-16.41c-1.58-0.1-2.86-1.39-2.92-2.92V91.87
    c0-7.56,0.74-18.62-0.37-23.75c-1.48-7.19-5.91-9.22-11.62-9.22c-4.77,0-9.72,3.2-11.75,8.32c-2.77,6.36-2.51,16.98-2.51,24.65
    v29.51c-0.04,1.7-1.45,2.92-3.15,2.92H611.16z"/>
  <path fill="#a4a4a4" d="M557.39,33.51h-16.8c-1.6-0.1-2.88,1.21-3.07,2.63v80.88c0,1.59,1.29,2.88,2.88,2.88h15.66
    c1.47-0.08,2.64-1.19,2.88-2.6V36.38C558.94,34.85,558.31,33.59,557.39,33.51z"/>
  <path fill="#a4a4a4" d="M332.3,123.81c-2.2-0.06-3.99-1.75-4.21-3.95c-1.09-10.63-5.65-15.91-14.08-15.91
    c-5.19,0-9.04,2.48-9.04,8.44c0,4.46,2.76,6.85,8.74,9.75l9.9,4.77c12.99,6.22,19.32,12.95,19.32,23.9
    c0,13.83-12.68,22.91-30.33,22.91c-13.18,0-28.95-4.51-30.85-25.12c-0.13-1.59,1.09-3.09,2.8-3.09h14.3
    c1.65,0,3.01,1.13,3.26,2.65c1.04,6.2,5.42,9.07,11.9,9.07c6.3,0,9.44-2.38,9.44-8.01c0-4.12-3.1-7.1-9.76-10.21l-9.25-4.36
    c-11.27-5.36-18.42-12.47-18.42-23.95c0-14.61,12.55-22.89,28.68-22.89c19.61,0,27.49,12.51,28.95,21.07
    c0.2,1.48-0.87,2.92-2.47,3.13L332.3,123.81z"/>
  <path fill="#a4a4a4" d="M715.22,123.81c-2.2-0.06-3.99-1.75-4.21-3.95c-1.09-10.63-5.65-15.91-14.08-15.91
    c-5.19,0-9.04,2.48-9.04,8.44c0,4.46,2.76,6.85,8.74,9.75l9.9,4.77c12.99,6.22,19.32,12.95,19.32,23.9
    c0,13.83-12.68,22.91-30.33,22.91c-13.18,0-28.95-4.51-30.85-25.12c-0.13-1.59,1.09-3.09,2.8-3.09h14.3
    c1.65,0,3.01,1.13,3.26,2.65c1.04,6.2,5.42,9.07,11.9,9.07c6.3,0,9.44-2.38,9.44-8.01c0-4.12-3.1-7.1-9.76-10.21l-9.25-4.36
    c-11.27-5.36-18.42-12.47-18.42-23.95c0-14.61,12.55-22.89,28.68-22.89c19.61,0,27.49,12.51,28.95,21.07
    c0.2,1.48-0.87,2.92-2.47,3.13L715.22,123.81z"/>
</svg>