<svg xmlns="http://www.w3.org/2000/svg" viewBox="0 0 800 300">
  <path fill="#a4a4a4" d="M400,72.22c-14.54,0-26.36,11.81-26.36,26.36c0,1.53,0.13,3.03,0.38,4.49l-34.57,12.29
    c-4.66-4.21-10.86-6.78-17.66-6.78c-14.54,0-26.36,11.81-26.36,26.36c0,3.35,0.63,6.56,1.77,9.5l-35.57,20.94
    c-4.49-3.13-9.94-4.97-15.81-4.97c-15.33,0-27.79,12.45-27.79,27.79c0,15.33,12.45,27.79,27.79,27.79
    c15.33,0,27.79-12.45,27.79-27.79c0-3.35-0.59-6.56-1.68-9.54l35.69-20.98c4.45,3.09,9.85,4.89,15.67,4.89
    c14.54,0,26.36-11.81,26.36-26.36c0-1.53-0.13-3.03-0.38-4.49l34.54-12.29c4.66,4.25,10.9,6.82,17.71,6.82
    c14.54,0,26.36-11.81,26.36-26.36S414.54,72.22,400,72.22z"/>
  <path fill="#a4a4a4" d="M507.63,108.58c-5.93,0-11.35,2.61-15.05,6.78l-34.57-12.29c0.25-1.46,0.38-2.96,0.38-4.49
    c0-14.54-11.81-26.36-26.36-26.36s-26.36,11.81-26.36,26.36s11.81,26.36,26.36,26.36c6.82,0,13.05-2.57,17.71-6.82l34.54,12.29
    c-0.25,1.46-0.38,2.96-0.38,4.49c0,14.54,11.81,26.36,26.36,26.36c5.82,0,11.22-1.81,15.67-4.89l35.69,20.98
    c-1.09,2.99-1.68,6.2-1.68,9.54c0,15.33,12.45,27.79,27.79,27.79c15.33,0,27.79-12.45,27.79-27.79
    c0-15.33-12.45-27.79-27.79-27.79c-5.87,0-11.32,1.84-15.81,4.97l-35.57-20.94c1.14-2.95,1.77-6.15,1.77-9.5
    C534,120.39,522.18,108.58,507.63,108.58z"/>
  <path fill="#a4a4a4" d="M209.82,227.04l36.04-20.28l-36.04-20.28v13.52h-35.58v13.52h35.58V227.04z"/>
  <path fill="#a4a4a4" d="M590.18,227.04v-13.52h35.58v-13.52h-35.58v-13.52l-36.04,20.28L590.18,227.04z"/>
</svg>