<svg xmlns="http://www.w3.org/2000/svg" viewBox="0 0 800 300">
  <path fill="#a4a4a4" d="M103.1,149.61c0,4.77,3.67,7.77,8.05,7.77c4.37,0,8.05-3,8.05-7.77c0-4.77-3.67-7.77-8.05-7.77
    C106.77,141.85,103.1,144.85,103.1,149.61z"/>
  <path fill="#a4a4a4" d="M161.52,138.1c0,0,1.54-0.76,2.97-0.76c1.99,0,3.22,1.17,3.22,3.35v1.61h-1.99
    c-3.43,0-6.27,1.17-6.27,4.77c0,2.97,2.12,4.52,5.27,4.52c2.12,0,3.15-0.83,3.36-0.97v0.69h2.71v-10.74
    c0-3.71-2.43-5.51-5.95-5.51c-3.43,0-5.68,1.86-5.68,1.86L161.52,138.1z M164.66,143.71h2.05v2.43c0,0-0.78,1.42-2.56,1.42
    c-1.29,0-2.56-0.44-2.56-1.93C161.59,144.15,162.89,143.71,164.66,143.71z"/>
  <path fill="#a4a4a4" d="M197.38,134.93h-3.17v12.43c0,1.99-1.27,2.82-2.86,2.82c-1.62,0-2.84-0.83-2.84-2.82v-12.43h-3.17v13.09
    c0,3.28,2.97,4.57,6.01,4.57c2.99,0,6.03-1.29,6.03-4.57V134.93z"/>
  <path fill="#a4a4a4" d="M202.49,134.93v16.93h3v-12.09l7.1,12.09h2.95v-16.93h-3v12.09l-7.1-12.09H202.49z"/>
  <path fill="#a4a4a4" d="M232.13,134.93v16.93h3.17v-16.93H232.13z"/>
  <path fill="#a4a4a4" d="M255.93,134.93h-3.17v12.43c0,1.99-1.27,2.82-2.86,2.82c-1.62,0-2.84-0.83-2.84-2.82v-12.43h-3.17v13.09
    c0,3.28,2.97,4.57,6.01,4.57c2.99,0,6.03-1.29,6.03-4.57V134.93z"/>
  <path fill="#a4a4a4" d="M265.4,144.47l4.64-9.54h3.43v16.93h-3v-12.04l-4.69,9.46h-0.78l-4.64-9.44v12.02h-3v-16.93h3.41
    L265.4,144.47z"/>
  <path fill="#a4a4a4" d="M287.8,149.93h-4.4l2.2-5.92L287.8,149.93z M278.89,151.87h9.35l1.13,3.09h3.43l-7.84-20.02h-2.84
    l-7.82,20.02h3.41L278.89,151.87z"/>
  <path fill="#a4a4a4" d="M303.38,134.93v16.93h3.17v-7.23h8.34v7.23h3.17v-16.93h-3.17v6.79h-8.34v-6.79H303.38z"/>
  <path fill="#a4a4a4" d="M336.17,134.93v16.93h11.39v-2.91h-8.22v-4.32h8.1v-2.91h-8.1v-3.87h8.22v-2.91H336.17z"/>
  <path fill="#a4a4a4" d="M367.03,134.93h-3.17v12.43c0,1.99-1.27,2.82-2.86,2.82c-1.62,0-2.84-0.83-2.84-2.82v-12.43h-3.17v13.09
    c0,3.28,2.97,4.57,6.01,4.57c2.99,0,6.03-1.29,6.03-4.57V134.93z"/>
  <path fill="#a4a4a4" d="M376.24,134.93v16.93h11.39v-2.91h-8.22v-4.32h8.1v-2.91h-8.1v-3.87h8.22v-2.91H376.24z"/>
  <path fill="#a4a4a4" d="M407.1,134.93h-3.17v12.43c0,1.99-1.27,2.82-2.86,2.82c-1.62,0-2.84-0.83-2.84-2.82v-12.43h-3.17v13.09
    c0,3.28,2.97,4.57,6.01,4.57c2.99,0,6.03-1.29,6.03-4.57V134.93z"/>
  <path fill="#a4a4a4" d="M423.57,149.61c0,4.77,3.67,7.77,8.05,7.77c4.37,0,8.05-3,8.05-7.77c0-4.77-3.67-7.77-8.05-7.77
    C427.24,141.85,423.57,144.85,423.57,149.61z"/>
  <path fill="#a4a4a4" d="M450.66,134.93v16.93h3.17v-16.93H450.66z"/>
  <path fill="#a4a4a4" d="M476.23,134.93h-3.17v12.43c0,1.99-1.27,2.82-2.86,2.82c-1.62,0-2.84-0.83-2.84-2.82v-12.43h-3.17v13.09
    c0,3.28,2.97,4.57,6.01,4.57c2.99,0,6.03-1.29,6.03-4.57V134.93z"/>
  <path fill="#a4a4a4" d="M486.18,134.93v16.93h3v-12.09l7.1,12.09h2.95v-16.93h-3v12.09l-7.1-12.09H486.18z"/>
  <path fill="#a4a4a4" d="M511.77,134.93v16.93h3.17v-16.93H511.77z"/>
  <path fill="#a4a4a4" d="M530.77,144.47l4.64-9.54h3.43v16.93h-3v-12.04l-4.69,9.46h-0.78l-4.64-9.44v12.02h-3v-16.93h3.41
    L530.77,144.47z"/>
  <path fill="#a4a4a4" d="M557.04,134.93h-4.18l-7.6,16.93h3.36l1.54-3.65h9.61l1.54,3.65h3.36L557.04,134.93z M551.41,145.3
    l3.49-8.27l3.49,8.27H551.41z"/>
  <path fill="#a4a4a4" d="M576.74,134.93v16.93h3.17v-16.93H576.74z"/>
  <path fill="#a4a4a4" d="M596.96,134.93c-4.57,0-8.39,3.63-8.39,8.51c0,4.89,3.82,8.51,8.39,8.51c2.28,0,3.92-0.7,5.03-1.35
    l-1.29-2.48c0,0-1.52,0.95-3.59,0.95c-2.54,0-5.22-1.86-5.22-5.63c0-3.77,2.69-5.63,5.22-5.63c2.07,0,3.67,1.02,3.67,1.02
    l1.29-2.56C600.4,135.48,598.95,134.93,596.96,134.93z"/>
  <path fill="#a4a4a4" d="M610.84,134.93h-3.3v16.93h11.63v-2.91h-8.34V134.93z"/>
  <path fill="#a4a4a4" d="M626.39,134.93v16.93h3.17v-16.93H626.39z"/>
  <path fill="#a4a4a4" d="M113.06,118.29v-9.7h5.15V91.37h-5.15v-10.1h23.07c0,0,13.01-0.15,13.01,10.2c0,6.97-6.24,9.11-6.24,9.11
    s9.61,1.78,9.61,11.09c0,13.37-13.57,13.86-13.57,13.86h-25.89V118.29z M127.48,102.96h8.07c0,0,4.94-0.3,4.94-3.96
    c0-3.76-4.84-3.96-4.84-3.96h-8.17V102.96z M127.48,122.56h10.25c0,0,4.89-0.15,4.89-4.41c0-4.31-4.74-4.46-4.74-4.46h-10.4
    V122.56z"/>
  <path fill="#a4a4a4" d="M192.47,125.53c-14.78,0-26.74-10.45-26.74-23.33c0-12.88,11.96-23.33,26.74-23.33
    c14.78,0,26.74,10.45,26.74,23.33C219.22,115.09,207.26,125.53,192.47,125.53z M192.47,88.64c-7.53,0-13.62,6.09-13.62,13.62
    c0,7.53,6.09,13.62,13.62,13.62c7.53,0,13.62-6.09,13.62-13.62C206.09,94.73,199.99,88.64,192.47,88.64z"/>
  <path fill="#a4a4a4" d="M253.87,125.53c-14.78,0-26.74-10.45-26.74-23.33c0-12.88,11.96-23.33,26.74-23.33
    c14.78,0,26.74,10.45,26.74,23.33C280.62,115.09,268.66,125.53,253.87,125.53z M253.87,88.64c-7.53,0-13.62,6.09-13.62,13.62
    c0,7.53,6.09,13.62,13.62,13.62c7.53,0,13.62-6.09,13.62-13.62C267.49,94.73,261.4,88.64,253.87,88.64z"/>
  <path fill="#a4a4a4" d="M317.12,91.37h-13.32v34.16h-13.82v-45h27.14c0,0,26.89-2.13,26.89,24.11c0,26.99-26.89,26.24-26.89,26.24
    c-6.98,0-19.14,0-19.14,0v-10.35h19.14c0,0,13.07,1.14,13.07-15.89C330.19,93.15,324.94,91.37,317.12,91.37z"/>
  <path fill="#a4a4a4" d="M376.98,84.27c-0.74-0.99-1.93-1.73-3.47-1.73c-1.39,0-2.92,0.89-2.92,3.61c0,2.43,1.48,3.02,3.12,3.91
    c1.68,0.94,3.56,1.98,3.56,4.95c0,4.4-3.17,6.53-6.87,6.53c-2.57,0-4.85-0.99-6.48-3.07l2.72-1.93c0.84,1.24,2.33,2.18,3.66,2.18
    c1.58,0,3.27-0.84,3.27-3.56c0-2.28-1.34-2.87-2.87-3.66c-1.88-0.99-3.81-1.98-3.81-5.24c0-3.95,2.92-6.48,6.38-6.48
    c2.42,0,4.16,0.94,5.45,2.62L376.98,84.27z"/>
  <path fill="#a4a4a4" d="M399.45,98.81h-7.61v2.92H388V80.79h16.1v2.92h-12.27v7.27h7.61V98.81z"/>
  <path fill="#a4a4a4" d="M415.7,100.98l-7.22-10.68v10.68h-3.7V80.79h3.76l7.17,10.58V80.79h3.7v20.19H415.7z"/>
  <path fill="#a4a4a4" d="M438.47,100.98v-8.29l-6.48-11.9h4.1l4.4,8.1l4.35-8.1h4.1l-6.48,11.9v8.29H438.47z"/>
  <path fill="#a4a4a4" d="M164.01,100.76h-6.02l-6.07-8.31v8.31h-2.83V80.57h2.83v10.57l5.58-7.49h5.49l-6.84,8.47L164.01,100.76z
    "/>
  <path fill="#a4a4a4" d="M168.6,78.73v-1.79h2.92v1.79H168.6z M168.6,100.76V83.65h2.92v17.11H168.6z"/>
  <path fill="#a4a4a4" d="M182.95,100.76V85.61h-4.3v-1.96h11.51v1.96h-4.3v15.15H182.95z"/>
  <path fill="#a4a4a4" d="M352.68,81.27c-12.82,0-23.22,10.4-23.22,23.22s10.4,23.22,23.22,23.22s23.22-10.4,23.22-23.22
    S365.5,81.27,352.68,81.27z M352.68,122.95c-10.19,0-18.46-8.27-18.46-18.46c0-10.19,8.27-18.46,18.46-18.46
    c10.19,0,18.46,8.27,18.46,18.46C371.14,114.68,362.87,122.95,352.68,122.95z"/>
  <path fill="#a4a4a4" d="M401.01,125.53c-6.08,0-9.52-2.2-12.94-6.53h-0.73v5.44h-12.5v-45h13.68v15.4h0.73
    c3.67-3.67,7.34-5.69,13.01-5.69c11.47,0,19.65,10.81,19.65,18.28C421.91,114.9,412.48,125.53,401.01,125.53z M397.16,98.89
    c-5.19,0-9.4,4.21-9.4,9.4c0,5.19,4.21,9.4,9.4,9.4c5.19,0,9.4-4.21,9.4-9.4C406.56,103.1,402.35,98.89,397.16,98.89z"/>
  <path fill="#a4a4a4" d="M463.17,102.8h-29.78l-9.15-11.44h-14.05v33.97h14.05v-12.7h29.78v12.7h14.05V91.37h-14.05L463.17,102.8z
    "/>
  <path fill="#a4a4a4" d="M496.37,125.34h-14.05V80.27h14.05V125.34z"/>
  <path fill="#a4a4a4" d="M558.46,104.82l20.11-25.07h-18.45v-10.1h36.2v10.1l-20.52,25.48h20.52v10.1h-37.85v-10.1h12.41
    L558.46,104.82z"/>
  <path fill="#a4a4a4" d="M505.13,91.59v33.68h14.22V91.37h10.52l-10.32-11.06h-13.76h-0.29h-13.76l-10.32,11.06h10.52v33.9h14.22
    v-33.9V91.59z"/>
  <path fill="#a4a4a4" d="M163.68,180.47c-33.1,7.65-30.74,26.87-30.74,26.87s-39.08-40.91-33.58-61.36
    c5.49-20.45,40.14-6.13,40.14-6.13s23.22-18.86,41.56-13.37c18.33,5.49,12.37,29.65,12.37,29.65
    c21.91-10.56,34.22,8.27,34.22,8.27s-6.63-73.26-73.26-60.95C87.76,115.78,77.21,162,77.21,162s-28.61-35.24-38.23-13.84
    c-9.62,21.4,19.92,53.85,19.92,53.85s9.8-35.31,39.4-22.94c29.59,12.37,28.61,34.27,28.61,34.27h35.67v-32.9h13.21
    c0,0,13.1-1.53,13.1-13.1C188.89,175.92,163.68,180.47,163.68,180.47z"/>
  <path fill="#a4a4a4" d="M167.78,180.47c-30.83-7.65-41.38,15.93-41.38,15.93l20.91,16.98c0,0-1.03-22.67,23.12-23.06
    C181.96,189.96,167.78,180.47,167.78,180.47z"/>
  <path fill="#a4a4a4" d="M136.56,139.82c-7.74,7.26-0.92,20.45-0.92,20.45s-13.78-4.05-15.3-14.12
    c-1.53-10.07,9.19-15.01,9.19-15.01S141.99,134.66,136.56,139.82z"/>
  <path fill="#a4a4a4" d="M179.91,152.31c-13.59-5.61-16.64,9.95-16.64,9.95s12.13,4.05,17.24-1.9
    C184.82,156.51,179.91,152.31,179.91,152.31z"/>
  <path fill="#a4a4a4" d="M612.03,180.47c-33.1,7.65-30.74,26.87-30.74,26.87s-39.08-40.91-33.58-61.36
    c5.49-20.45,40.14-6.13,40.14-6.13s23.22-18.86,41.56-13.37c18.33,5.49,12.37,29.65,12.37,29.65
    c21.91-10.56,34.22,8.27,34.22,8.27s-6.63-73.26-73.26-60.95c-66.62,12.31-77.18,58.53-77.18,58.53s-28.61-35.24-38.23-13.84
    c-9.62,21.4,19.92,53.85,19.92,53.85s9.8-35.31,39.4-22.94c29.59,12.37,28.61,34.27,28.61,34.27h35.67v-32.9h13.21
    c0,0,13.1-1.53,13.1-13.1C637.24,175.92,612.03,180.47,612.03,180.47z"/>
  <path fill="#a4a4a4" d="M616.13,180.47c-30.83-7.65-41.38,15.93-41.38,15.93l20.91,16.98c0,0-1.03-22.67,23.12-23.06
    C630.31,189.96,616.13,180.47,616.13,180.47z"/>
  <path fill="#a4a4a4" d="M584.91,139.82c-7.74,7.26-0.92,20.45-0.92,20.45s-13.78-4.05-15.3-14.12
    c-1.53-10.07,9.19-15.01,9.19-15.01S590.34,134.66,584.91,139.82z"/>
  <path fill="#a4a4a4" d="M628.26,152.31c-13.59-5.61-16.64,9.95-16.64,9.95s12.13,4.05,17.24-1.9
    C633.17,156.51,628.26,152.31,628.26,152.31z"/>
  <path fill="#a4a4a4" d="M333.46,80.04h-22.51v45.3h45.3v-22.79h-22.79V80.04z"/>
</svg>