<svg xmlns="http://www.w3.org/2000/svg" viewBox="0 0 800 300">
  <path fill="#a4a4a4" d="M400.56,94.14c13.9,0,25.16,11.26,25.16,25.16c0,13.9-11.26,25.16-25.16,25.16
    c-13.9,0-25.16-11.26-25.16-25.16C375.4,105.41,386.66,94.14,400.56,94.14z M400.56,137.72c10.17,0,18.42-8.25,18.42-18.42
    c0-10.17-8.25-18.42-18.42-18.42s-18.42,8.25-18.42,18.42C382.14,129.47,390.39,137.72,400.56,137.72z"/>
  <path fill="#a4a4a4" d="M99.09,171.84h50.56l18.14,31.42h53.74l-27.89-48.3c20.15-6.88,31.24-19.33,31.24-37.76
    c0-28.44-19.87-46.76-56.92-46.76H99.09V171.84z M146.05,98.27h19.69c13.02,0,20.71,6.14,20.71,17.65
    c0,11.33-7.69,17.47-20.71,17.47h-19.69V98.27z"/>
  <path fill="#a4a4a4" d="M242.56,122.17c0,49.56,32.65,82.39,81.84,82.39c49.19,0,81.84-32.84,81.84-82.39
    c0-49.56-32.65-82.21-81.84-82.21C275.21,39.96,242.56,72.61,242.56,122.17z M347.5,122.17c0,29.32-9.34,45.4-23.1,45.4
    c-13.76,0-23.1-16.08-23.1-45.4c0-29.32,9.34-45.21,23.1-45.21C338.16,76.96,347.5,92.85,347.5,122.17z"/>
  <path fill="#a4a4a4" d="M417.31,171.84h50.56l18.14,31.42h53.74l-27.89-48.3c20.15-6.88,31.24-19.33,31.24-37.76
    c0-28.44-19.87-46.76-56.92-46.76h-68.87V171.84z M464.28,98.27h19.69c13.02,0,20.71,6.14,20.71,17.65
    c0,11.33-7.69,17.47-20.71,17.47h-19.69V98.27z"/>
  <path fill="#a4a4a4" d="M554.6,171.84h112.31v-36.06H605.17v-19.69h58.65V82.19h-58.65V76.42h61.74v-36.06H554.6V171.84z"/>
  <path fill="#a4a4a4" d="M673.89,171.84h27.16V76.42h40.55v-36.06H633.34v36.06h40.55V171.84z"/>
  <path fill="#a4a4a4" d="M400.56,60.42c3.34,0,6.05-2.71,6.05-6.05c0-3.34-2.71-6.05-6.05-6.05c-3.34,0-6.05,2.71-6.05,6.05
    C394.51,57.71,397.22,60.42,400.56,60.42z"/>
  <polygon fill="#a4a4a4" points="397.46,49.85 400.56,43.01 403.67,49.85 410.51,52.96 403.67,56.06 400.56,62.9 397.46,56.06 
    390.62,52.96 "/>
  <polygon fill="#a4a4a4" points="404.4,42.63 400.56,34.05 396.72,42.63 388.14,46.47 396.72,50.31 400.56,58.89 404.4,50.31 
    412.98,46.47 "/>
  <polygon fill="#a4a4a4" points="407.96,38.16 400.56,22.82 393.17,38.16 377.83,45.56 393.17,52.95 400.56,68.29 407.96,52.95 
    423.3,45.56 "/>
  <polygon fill="#a4a4a4" points="410.51,35.1 400.56,15.28 390.62,35.1 370.8,45.05 390.62,55 400.56,74.81 410.51,55 430.33,45.05 
    "/>
</svg>