<svg xmlns="http://www.w3.org/2000/svg" viewBox="0 0 800 300">
  <path fill="#a4a4a4" d="M400,62.5c-48.33,0-87.5,39.17-87.5,87.5s39.17,87.5,87.5,87.5s87.5-39.17,87.5-87.5S448.33,62.5,400,62.5z
     M400,208.33c-32.22,0-58.33-26.11-58.33-58.33s26.11-58.33,58.33-58.33s58.33,26.11,58.33,58.33S432.22,208.33,400,208.33z"/>
  <path fill="#a4a4a4" d="M343.59,149.28c0.31-1.7,0.32-4.16-0.23-6.19c-3.19-11.8-13.89-20.62-26.79-20.62
    c-15.34,0-27.76,12.42-27.76,27.75c0,15.34,12.42,27.76,27.76,27.76c12.91,0,23.6-8.82,26.79-20.62c0.56-2.03,0.54-4.49,0.23-6.19
    c-0.8-0.24-2.18-0.35-3.59-0.35h-15.38c-0.94,0-1.91,0.47-2.41,1.28c-1.34,2.19-3.77,3.65-6.54,3.65c-4.22,0-7.64-3.42-7.64-7.64
    c0-4.22,3.42-7.64,7.64-7.64c2.76,0,5.2,1.46,6.54,3.65c0.5,0.81,1.47,1.28,2.41,1.28h15.38
    C341.41,149.63,342.79,149.52,343.59,149.28z"/>
  <path fill="#a4a4a4" d="M220.34,97.69c-34.36,0-62.19,27.83-62.19,62.19v0.41c0,34.36,27.83,62.19,62.19,62.19
    c34.36,0,62.19-27.83,62.19-62.19v-0.41C282.53,125.52,254.7,97.69,220.34,97.69z M220.34,201.45
    c-22.71,0-41.16-18.45-41.16-41.16v-0.41c0-22.71,18.45-41.16,41.16-41.16c22.71,0,41.16,18.45,41.16,41.16v0.41
    C261.5,183,243.05,201.45,220.34,201.45z"/>
  <path fill="#a4a4a4" d="M579.66,97.69c-34.36,0-62.19,27.83-62.19,62.19v0.41c0,34.36,27.83,62.19,62.19,62.19
    c34.36,0,62.19-27.83,62.19-62.19v-0.41C641.85,125.52,614.02,97.69,579.66,97.69z M579.66,201.45
    c-22.71,0-41.16-18.45-41.16-41.16v-0.41c0-22.71,18.45-41.16,41.16-41.16c22.71,0,41.16,18.45,41.16,41.16v0.41
    C620.82,183,602.37,201.45,579.66,201.45z"/>
  <path fill="#a4a4a4" d="M456.41,149.28c-0.31-1.7-0.32-4.16,0.23-6.19c3.19-11.8,13.89-20.62,26.79-20.62
    c15.34,0,27.76,12.42,27.76,27.75c0,15.34-12.42,27.76-27.76,27.76c-12.91,0-23.6-8.82-26.79-20.62c-0.56-2.03-0.54-4.49-0.23-6.19
    c0.8-0.24,2.18-0.35,3.59-0.35h15.38c0.94,0,1.91,0.47,2.41,1.28c1.34,2.19,3.77,3.65,6.54,3.65c4.22,0,7.64-3.42,7.64-7.64
    c0-4.22-3.42-7.64-7.64-7.64c-2.76,0-5.2,1.46-6.54,3.65c-0.5,0.81-1.47,1.28-2.41,1.28h-15.38
    C458.59,149.63,457.21,149.52,456.41,149.28z"/>
</svg>